Coordinates
version=1
nRows=17
nColumns=34
inDegrees=yes

Units are S.I. units (second, meters, Newtons, ...)
If the header above contains a line with 'inDegrees', this indicates whether rotational values are in degrees (yes) or radians (no).

endheader
time	pelvis_tilt	pelvis_list	pelvis_rotation	pelvis_tx	pelvis_ty	pelvis_tz	hip_flexion_r	hip_adduction_r	hip_rotation_r	knee_angle_r	ankle_angle_r	subtalar_angle_r	mtp_angle_r	hip_flexion_l	hip_adduction_l	hip_rotation_l	knee_angle_l	ankle_angle_l	subtalar_angle_l	mtp_angle_l	lumbar_extension	lumbar_bending	lumbar_rotation	arm_flex_r	arm_add_r	arm_rot_r	elbow_flex_r	pro_sup_r	arm_flex_l	arm_add_l	arm_rot_l	elbow_flex_l	pro_sup_l
      0.00000000	     -0.40232832	     -1.20523769	     -0.11744098	     -0.01068724	      1.21748278	     -0.09345731	     -6.08962852	      3.19802682	     -4.13556941	      0.00000000	      9.46262640	     -1.57835322	      0.00000000	     -5.97906897	     -0.10202942	     -4.19314481	      0.00000000	      6.90877685	     -3.16841965	      0.00000000	     -3.14935841	      3.24965504	     -0.43770606	      8.83076501	    -10.09501545	     39.76883847	     16.00319406	     65.13188226	      0.14227009	    -11.27634805	     41.77022763	     23.04710935	     45.79694916
      0.01666670	     -1.54460012	     -0.96925683	      0.12359946	     -0.01279831	      1.21979311	     -0.09579580	     -4.78167252	      3.14860816	     -4.11557641	      0.00000000	     11.04545288	      0.89716626	      0.00000000	     -4.59385544	      0.61695695	     -5.25087308	      0.00000000	      7.06690843	     -1.52556437	      0.00000000	     -1.79808611	      3.11175319	     -0.07850468	      8.62750142	     -9.56997092	     36.82787227	     14.97370512	     65.35021891	      1.00868780	    -11.03034899	     45.26271671	     21.43575033	     47.95568655
      0.03333330	     -2.35091784	     -0.33280011	     -0.52307081	     -0.01086559	      1.21711199	     -0.09397491	     -3.88214388	      2.55599972	     -4.11344359	      0.00000000	     11.56904591	      1.27346729	      0.00000000	     -3.82558277	      1.41502547	     -6.32031859	      0.00000000	      7.33821131	     -0.80530189	      0.00000000	     -1.02064253	      2.13294398	      0.95119453	      8.22946494	     -9.15323549	     36.51671973	     14.85826639	     65.58892385	      1.20430976	    -11.64209200	     45.83995085	     21.67485517	     48.47476102
      0.05000000	     -1.89659697	     -0.01672745	     -0.72902284	     -0.01000635	      1.21871123	     -0.09414217	     -4.48186655	      2.19394943	     -4.40512060	      0.00000000	     12.01235751	      2.28887851	      0.00000000	     -4.47788328	      1.85373319	     -7.29005922	      0.00000000	      8.00722463	      0.75503592	      0.00000000	     -1.70019924	      1.68374271	      1.13607542	      8.37007850	     -8.80456247	     35.55898667	     14.70624571	     65.88900974	      1.45527093	    -12.11810942	     47.35565736	     21.20961761	     49.61163406
      0.06666670	     -1.97084368	     -0.03336262	     -0.73821728	     -0.01024392	      1.21833986	     -0.09483445	     -4.53186414	      2.22782716	     -4.40450807	      0.00000000	     12.00918122	      2.29127993	      0.00000000	     -4.48112498	      1.92574836	     -7.28611601	      0.00000000	      8.01535671	      0.75654279	      0.00000000	     -1.71354646	      1.69003174	      1.14640850	      8.36616958	     -8.79651011	     35.55770647	     14.70699166	     65.88982483	      1.44161280	    -12.12859970	     47.35911286	     21.20229213	     49.61376911
      0.08333330	     -2.00453641	      0.06737868	     -0.73984069	     -0.01149944	      1.21877674	     -0.09518249	     -4.47209619	      2.07052579	     -4.39091724	      0.00000000	     12.02655022	      2.30862224	      0.00000000	     -4.41363215	      2.09333127	     -7.27791269	      0.00000000	      8.11678402	      0.75281228	      0.00000000	     -1.87199857	      1.81529346	      1.27276245	      8.33124928	     -8.74742847	     35.53908490	     14.69613218	     65.89399155	      1.26575805	    -12.24800890	     47.39557851	     21.10784153	     49.63283198
      0.10000000	     -2.07895461	      0.23305531	     -0.93370447	     -0.00976938	      1.21969646	     -0.09486235	     -4.37834154	      1.83058782	     -4.20124824	      0.00000000	     12.08244311	      2.45051417	      0.00000000	     -4.36421118	      2.28919163	     -7.19425815	      0.00000000	      8.39001195	      0.84875368	      0.00000000	     -2.02207268	      1.57661102	      1.40185410	      8.37892237	     -8.72242778	     35.41761444	     14.61853494	     65.89610917	      1.13485410	    -12.30308281	     47.53386302	     20.94455730	     49.71451262
      0.11666670	     -2.03524925	      0.23188438	     -0.92810396	     -0.01219534	      1.21999656	     -0.09405918	     -4.32662271	      1.81321677	     -4.19677727	      0.00000000	     12.08857970	      2.45232923	      0.00000000	     -4.36974941	      2.27796719	     -7.19411384	      0.00000000	      8.39511793	      0.85204222	      0.00000000	     -2.02152432	      1.57826451	      1.40038502	      8.37473460	     -8.71983421	     35.41477471	     14.61529851	     65.89609120	      1.13775432	    -12.30402171	     47.53690947	     20.94135382	     49.71659277
      0.13333330	     -2.11596410	      0.26069710	     -0.96233951	     -0.01174991	      1.22293114	     -0.09425958	     -4.16914023	      1.78893865	     -4.07126295	      0.00000000	     12.12010275	      2.51642672	      0.00000000	     -4.22915543	      2.28462370	     -7.13168684	      0.00000000	      8.39819799	      0.97195256	      0.00000000	     -2.26315522	      1.56822424	      1.41952134	      8.38871198	     -8.65798398	     35.35935547	     14.55047197	     65.89315457	      1.22639868	    -12.32542591	     47.59317189	     20.86741098	     49.75357561
      0.15000000	     -1.90056927	      0.25758219	     -1.07033670	     -0.01335158	      1.21981410	     -0.09450974	     -4.26494063	      1.78801341	     -3.78152656	      0.00000000	     12.17498146	      2.33075331	      0.00000000	     -4.44429110	      2.26039781	     -7.95550706	      0.00000000	      8.74621075	      2.40875410	      0.00000000	     -2.58431754	      1.56227474	      2.22700817	      8.65370652	     -8.33060848	     33.92862967	     13.05571738	     65.81089708	      2.21573009	    -12.04405188	     49.35524882	     19.53201703	     50.78605604
      0.16666670	     -1.92359638	      0.21238640	     -1.06973929	     -0.01390115	      1.21906585	     -0.09378538	     -4.21568896	      1.85627309	     -3.80811631	      0.00000000	     12.13944094	      2.32164063	      0.00000000	     -4.39196573	      2.17837792	     -7.94413710	      0.00000000	      8.73931358	      2.41437327	      0.00000000	     -2.65866716	      1.49205659	      2.20949534	      8.70859640	     -8.37372785	     33.90522718	     13.08717032	     65.81370758	      2.22384197	    -12.04456389	     49.39570213	     19.53780189	     50.80909299
      0.18333330	     -1.92889597	      0.21984169	     -1.06511010	     -0.01251607	      1.21610931	     -0.09396277	     -4.22709874	      1.86133297	     -3.81307396	      0.00000000	     12.13606560	      2.31839151	      0.00000000	     -4.38614355	      2.16815791	     -7.94763216	      0.00000000	      8.73843375	      2.41307971	      0.00000000	     -2.66686186	      1.49602188	      2.20922873	      8.71604887	     -8.37694648	     33.90376458	     13.09019156	     65.81404028	      2.22980523	    -12.05113791	     49.39829602	     19.53725649	     50.81089142
      0.20000000	     -1.90701444	      0.08259628	     -0.83761155	     -0.01403350	      1.21966114	     -0.09465258	     -4.24753670	      2.05560268	     -4.23821177	      0.00000000	     11.63748675	      2.06769831	      0.00000000	     -4.32358595	      1.97224382	     -8.02761636	      0.00000000	      8.50536241	      2.43740289	      0.00000000	     -2.92992538	      1.63665304	      2.05555148	      8.90137672	     -8.57318881	     33.85372118	     13.32524019	     65.87266675	      2.47301191	    -12.15931538	     49.82747613	     19.69501205	     51.03573083
      0.21666670	     -1.88838680	      0.09007933	     -0.81968437	     -0.01479598	      1.21729893	     -0.09494557	     -4.21286568	      2.04512027	     -4.23525523	      0.00000000	     11.63802282	      2.06764746	      0.00000000	     -4.34704713	      1.95322097	     -8.03179027	      0.00000000	      8.50539673	      2.43528786	      0.00000000	     -2.93056142	      1.63625543	      2.05722654	      8.90651818	     -8.58053269	     33.85363986	     13.32622262	     65.87334361	      2.47696781	    -12.16876660	     49.83103723	     19.69493803	     51.03775353
      0.23333330	     -1.89316922	      0.05930189	     -0.66641884	     -0.01412842	      1.21816830	     -0.09526090	     -4.17228324	      2.08017701	     -4.22165604	      0.00000000	     11.62637663	      2.05897958	      0.00000000	     -4.32656507	      1.87833275	     -8.06920619	      0.00000000	      8.47706786	      2.42758649	      0.00000000	     -2.94906840	      1.59568395	      2.05920059	      9.01263210	     -8.70881066	     33.85893695	     13.33506160	     65.88236489	      2.59002544	    -12.25764049	     49.87157666	     19.72452392	     51.06105986
      0.25000000	     -1.93672469	     -0.01140237	     -0.62076268	     -0.01435680	      1.21788411	     -0.09503364	     -3.99774028	      2.14828928	     -4.33116741	      0.00000000	     11.66855120	      1.93095489	      0.00000000	     -4.23438329	      1.76927571	     -8.06718536	      0.00000000	      8.41559292	      2.45304740	      0.00000000	     -3.13347082	      1.69073958	      2.09141879	      9.21392628	     -8.89938208	     33.95946849	     13.39491645	     65.93322837	      2.93274268	    -12.39518327	     50.06868478	     19.93037625	     51.15512141
      0.26666670	     -1.92742849	     -0.00376311	     -0.60902370	     -0.01320666	      1.21805545	     -0.09474269	     -3.94794603	      2.12790652	     -4.33181975	      0.00000000	     11.66804794	      1.92920358	      0.00000000	     -4.27609499	      1.73737179	     -8.06665273	      0.00000000	      8.41210121	      2.45385068	      0.00000000	     -3.13627231	      1.68781237	      2.09082784	      9.21266937	     -8.90312468	     33.96303529	     13.39473389	     65.93463137	      2.93737647	    -12.39322198	     50.07425177	     19.93695946	     51.15737988
